<svg xmlns="http://www.w3.org/2000/svg" width="22" height="21" viewBox="0 0 22 21">
  <g id="home_2" data-name="home 2" transform="translate(0 -15.017)">
    <path id="Контур_139" data-name="Контур 139" d="M56.646,204.771H41.984A1.963,1.963,0,0,1,40,202.833v-10.2a.69.69,0,0,1,1.38,0v10.2a.6.6,0,0,0,.6.59H56.646a.6.6,0,0,0,.6-.59v-10.2a.69.69,0,0,1,1.38,0v10.2A1.963,1.963,0,0,1,56.646,204.771Z" transform="translate(-38.315 -168.754)" fill="#222"/>
    <path id="Контур_140" data-name="Контур 140" d="M21.313,26.463a.692.692,0,0,1-.486-.2l-8.55-8.383a1.832,1.832,0,0,0-2.552,0l-8.55,8.383a.7.7,0,0,1-.972,0,.665.665,0,0,1,0-.953l8.55-8.383a3.228,3.228,0,0,1,4.5,0l8.55,8.383a.665.665,0,0,1,0,.953A.692.692,0,0,1,21.313,26.463Z" transform="translate(0 -1)" fill="#222"/>
    <path id="Контур_141" data-name="Контур 141" d="M182.067,296.746h-5.393a.674.674,0,0,1-.674-.674v-5.982a2.109,2.109,0,0,1,2.106-2.106h2.528a2.109,2.109,0,0,1,2.106,2.106v5.982A.674.674,0,0,1,182.067,296.746Zm-4.718-1.348h4.044v-5.308a.759.759,0,0,0-.758-.758h-2.528a.759.759,0,0,0-.758.758Z" transform="translate(-168.37 -260.729)" fill="#222"/>
  </g>
</svg>
