<svg xmlns="http://www.w3.org/2000/svg" width="15.4" height="21" viewBox="0 0 15.4 21">
  <g id="files" transform="translate(-64)">
    <g id="Сгруппировать_96" data-name="Сгруппировать 96" transform="translate(64)">
      <g id="Сгруппировать_95" data-name="Сгруппировать 95" transform="translate(0)">
        <path id="Контур_165" data-name="Контур 165" d="M79.4,3.85a.35.35,0,0,0-.1-.247L75.8.1A.345.345,0,0,0,75.55,0V0H65.05A1.05,1.05,0,0,0,64,1.05v18.9A1.05,1.05,0,0,0,65.05,21h13.3a1.05,1.05,0,0,0,1.05-1.05V3.85ZM75.9,1.195,78.205,3.5H76.25a.35.35,0,0,1-.35-.35ZM78.7,19.95a.35.35,0,0,1-.35.35H65.05a.35.35,0,0,1-.35-.35V1.05A.35.35,0,0,1,65.05.7H75.2V3.15A1.05,1.05,0,0,0,76.25,4.2H78.7Z" transform="translate(-64)" fill="#222"/>
      </g>
    </g>
    <g id="Сгруппировать_98" data-name="Сгруппировать 98" transform="translate(66.45 9.45)">
      <g id="Сгруппировать_97" data-name="Сгруппировать 97">
        <path id="Контур_166" data-name="Контур 166" d="M121.05,216a1.05,1.05,0,1,0,1.05,1.05A1.05,1.05,0,0,0,121.05,216Zm0,1.4a.35.35,0,1,1,.35-.35A.35.35,0,0,1,121.05,217.4Z" transform="translate(-120 -216)" fill="#222"/>
      </g>
    </g>
    <g id="Сгруппировать_100" data-name="Сгруппировать 100" transform="translate(70.002 10.114)">
      <g id="Сгруппировать_99" data-name="Сгруппировать 99" transform="translate(0 0)">
        <rect id="Прямоугольник_70" data-name="Прямоугольник 70" width="7.002" height="0.778" fill="#222"/>
      </g>
    </g>
    <g id="Сгруппировать_102" data-name="Сгруппировать 102" transform="translate(66.45 5.95)">
      <g id="Сгруппировать_101" data-name="Сгруппировать 101">
        <path id="Контур_167" data-name="Контур 167" d="M121.05,136a1.05,1.05,0,1,0,1.05,1.05A1.05,1.05,0,0,0,121.05,136Zm0,1.4a.35.35,0,1,1,.35-.35A.35.35,0,0,1,121.05,137.4Z" transform="translate(-120 -136)" fill="#222"/>
      </g>
    </g>
    <g id="Сгруппировать_104" data-name="Сгруппировать 104" transform="translate(70.002 6.669)">
      <g id="Сгруппировать_103" data-name="Сгруппировать 103" transform="translate(0 0)">
        <rect id="Прямоугольник_71" data-name="Прямоугольник 71" width="7.002" height="0.667" fill="#222"/>
      </g>
    </g>
    <g id="Сгруппировать_106" data-name="Сгруппировать 106" transform="translate(66.45 12.95)">
      <g id="Сгруппировать_105" data-name="Сгруппировать 105">
        <path id="Контур_168" data-name="Контур 168" d="M121.05,296a1.05,1.05,0,1,0,1.05,1.05A1.05,1.05,0,0,0,121.05,296Zm0,1.4a.35.35,0,1,1,.35-.35A.35.35,0,0,1,121.05,297.4Z" transform="translate(-120 -296)" fill="#222"/>
      </g>
    </g>
    <g id="Сгруппировать_108" data-name="Сгруппировать 108" transform="translate(70.002 13.671)">
      <g id="Сгруппировать_107" data-name="Сгруппировать 107" transform="translate(0 0)">
        <rect id="Прямоугольник_72" data-name="Прямоугольник 72" width="7.002" height="0.667" fill="#222"/>
      </g>
    </g>
    <g id="Сгруппировать_110" data-name="Сгруппировать 110" transform="translate(66.45 16.45)">
      <g id="Сгруппировать_109" data-name="Сгруппировать 109">
        <path id="Контур_169" data-name="Контур 169" d="M121.05,376a1.05,1.05,0,1,0,1.05,1.05A1.05,1.05,0,0,0,121.05,376Zm0,1.4a.35.35,0,1,1,.35-.35A.35.35,0,0,1,121.05,377.4Z" transform="translate(-120 -376)" fill="#222"/>
      </g>
    </g>
    <g id="Сгруппировать_112" data-name="Сгруппировать 112" transform="translate(70.002 17.116)">
      <g id="Сгруппировать_111" data-name="Сгруппировать 111" transform="translate(0 0)">
        <rect id="Прямоугольник_73" data-name="Прямоугольник 73" width="7.002" height="0.778" fill="#222"/>
      </g>
    </g>
  </g>
</svg>
