<svg xmlns="http://www.w3.org/2000/svg" width="22.898" height="16" viewBox="0 0 22.898 16">
  <g id="list" transform="translate(0 -79)">
    <g id="Сгруппировать_52" data-name="Сгруппировать 52" transform="translate(5.557 86.022)">
      <g id="Сгруппировать_51" data-name="Сгруппировать 51">
        <path id="Контур_147" data-name="Контур 147" d="M140.708,236H125.156a.894.894,0,0,0,0,1.789h15.552a.894.894,0,0,0,0-1.789Z" transform="translate(-124.262 -236)" fill="#222"/>
      </g>
    </g>
    <g id="Сгруппировать_54" data-name="Сгруппировать 54" transform="translate(5.557 79.313)">
      <g id="Сгруппировать_53" data-name="Сгруппировать 53">
        <path id="Контур_148" data-name="Контур 148" d="M140.708,86H125.156a.894.894,0,1,0,0,1.789h15.552a.894.894,0,0,0,0-1.789Z" transform="translate(-124.262 -86)" fill="#222"/>
      </g>
    </g>
    <g id="Сгруппировать_56" data-name="Сгруппировать 56" transform="translate(5.557 92.73)">
      <g id="Сгруппировать_55" data-name="Сгруппировать 55">
        <path id="Контур_149" data-name="Контур 149" d="M140.708,386H125.156a.894.894,0,1,0,0,1.789h15.552a.894.894,0,1,0,0-1.789Z" transform="translate(-124.262 -386)" fill="#222"/>
      </g>
    </g>
    <g id="Сгруппировать_58" data-name="Сгруппировать 58" transform="translate(0 79.001)">
      <g id="Сгруппировать_57" data-name="Сгруппировать 57" transform="translate(0 0)">
        <circle id="Эллипс_5" data-name="Эллипс 5" cx="1" cy="1" r="1" transform="translate(0 0)" fill="#222"/>
      </g>
    </g>
    <g id="Сгруппировать_60" data-name="Сгруппировать 60" transform="translate(0 85.752)">
      <g id="Сгруппировать_59" data-name="Сгруппировать 59" transform="translate(0 0)">
        <circle id="Эллипс_6" data-name="Эллипс 6" cx="1" cy="1" r="1" transform="translate(0 0.248)" fill="#222"/>
      </g>
    </g>
    <g id="Сгруппировать_62" data-name="Сгруппировать 62" transform="translate(0 92.503)">
      <g id="Сгруппировать_61" data-name="Сгруппировать 61" transform="translate(0 0)">
        <circle id="Эллипс_7" data-name="Эллипс 7" cx="1" cy="1" r="1" transform="translate(0 0.497)" fill="#222"/>
      </g>
    </g>
  </g>
</svg>
