<svg xmlns="http://www.w3.org/2000/svg" width="20.999" height="21" viewBox="0 0 20.999 21">
  <path id="Контур_151" data-name="Контур 151" d="M20.521,2.505,20.114,2.1a.308.308,0,0,0-.435.435l.407.407a1.06,1.06,0,0,1,0,1.5L19.525,5,16.013,1.486l.561-.561a1.06,1.06,0,0,1,1.5,0l.6.6a.308.308,0,0,0,.435-.435l-.6-.6a1.674,1.674,0,0,0-2.367,0L3.812,12.817a.308.308,0,0,0,.435.435l9.975-9.975,1.539,1.539L3.11,17.466l-1.005-.452a.162.162,0,0,1-.082-.082l-.452-1.005,1.666-1.666a.308.308,0,0,0-.435-.435L.982,15.648a.571.571,0,0,0-.109.308L.02,20.4a.5.5,0,0,0,.587.587l4.6-.882a.331.331,0,0,0,.151-.077L20.521,4.872a1.676,1.676,0,0,0,0-2.367ZM.87,19.24l.016-.086.971.971h0l-1.2.229Zm1.718.745L1.026,18.424l.3-1.549.139.31a.777.777,0,0,0,.391.391l1.092.491.491,1.092a.777.777,0,0,0,.391.391l.31.139Zm2.5-.546-1.005-.452A.163.163,0,0,1,4,18.906L3.545,17.9,16.2,5.25l1.539,1.539ZM18.17,6.354,14.658,2.842l.921-.921L19.09,5.433Z" transform="translate(-0.011 0)" fill="#222"/>
</svg>
