<svg xmlns="http://www.w3.org/2000/svg" width="11.375" height="21" viewBox="0 0 11.375 21">
  <g id="dollar_icon" data-name="dollar icon" transform="translate(-117.333)">
    <g id="Сгруппировать_75" data-name="Сгруппировать 75" transform="translate(122.583)">
      <g id="Сгруппировать_74" data-name="Сгруппировать 74" transform="translate(0)">
        <path id="Контур_156" data-name="Контур 156" d="M245.771,0a.438.438,0,0,0-.438.438V20.562a.438.438,0,0,0,.875,0V.438A.438.438,0,0,0,245.771,0Z" transform="translate(-245.333)" fill="#222"/>
      </g>
    </g>
    <g id="Сгруппировать_77" data-name="Сгруппировать 77" transform="translate(117.333 1.75)">
      <g id="Сгруппировать_76" data-name="Сгруппировать 76" transform="translate(0)">
        <path id="Контур_157" data-name="Контур 157" d="M123.021,42.667c-3.136,0-5.688,1.963-5.688,4.375a4.388,4.388,0,0,0,3.125,3.909.437.437,0,0,0,.317-.816,3.546,3.546,0,0,1-2.566-3.094c0-1.93,2.16-3.5,4.813-3.5s4.812,1.57,4.812,3.5a.438.438,0,1,0,.875,0C128.708,44.63,126.157,42.667,123.021,42.667Z" transform="translate(-117.333 -42.667)" fill="#222"/>
      </g>
    </g>
    <g id="Сгруппировать_79" data-name="Сгруппировать 79" transform="translate(117.333 10.936)">
      <g id="Сгруппировать_78" data-name="Сгруппировать 78" transform="translate(0)">
        <path id="Контур_158" data-name="Контур 158" d="M125.582,266.664a.437.437,0,1,0-.316.815,3.546,3.546,0,0,1,2.566,3.094c0,1.93-2.16,3.5-4.813,3.5s-4.812-1.57-4.812-3.5a.438.438,0,0,0-.875,0c0,2.412,2.551,4.375,5.688,4.375s5.688-1.963,5.688-4.375A4.385,4.385,0,0,0,125.582,266.664Z" transform="translate(-117.333 -266.634)" fill="#222"/>
      </g>
    </g>
    <g id="Сгруппировать_81" data-name="Сгруппировать 81" transform="translate(120.178 9.189)">
      <g id="Сгруппировать_80" data-name="Сгруппировать 80" transform="translate(0)">
        <path id="Контур_159" data-name="Контур 159" d="M192.107,225.814c-1.28-.516-1.887-.717-2.529-.928-.57-.188-1.158-.383-2.285-.821a.437.437,0,1,0-.318.815c1.148.446,1.748.644,2.328.836.628.207,1.221.4,2.476.909a.446.446,0,0,0,.164.031.437.437,0,0,0,.163-.842Z" transform="translate(-186.697 -224.034)" fill="#222"/>
      </g>
    </g>
  </g>
</svg>
