<svg xmlns="http://www.w3.org/2000/svg" width="14" height="14" viewBox="0 0 14 14">
  <g id="perm_identity_black_24dp" transform="translate(-4 -4)">
    <path id="Контур_203" data-name="Контур 203" d="M11,5.663A1.837,1.837,0,1,1,9.162,7.5,1.837,1.837,0,0,1,11,5.663m0,7.875c2.6,0,5.337,1.278,5.337,1.838v.962H5.663v-.962c0-.56,2.739-1.838,5.337-1.838M11,4a3.5,3.5,0,1,0,3.5,3.5A3.5,3.5,0,0,0,11,4Zm0,7.875c-2.336,0-7,1.173-7,3.5V18H18V15.375C18,13.048,13.336,11.875,11,11.875Z" fill="#fff"/>
  </g>
</svg>
