<svg xmlns="http://www.w3.org/2000/svg" width="23.77" height="23.77" viewBox="0 0 23.77 23.77">
  <g id="dashboard" transform="translate(0 0)">
    <path id="Контур_213" data-name="Контур 213" d="M9.161,7.924H1.733A1.735,1.735,0,0,1,0,6.19V1.733A1.735,1.735,0,0,1,1.733,0H9.161a1.735,1.735,0,0,1,1.733,1.733V6.19A1.735,1.735,0,0,1,9.161,7.924ZM1.733,1.486a.248.248,0,0,0-.248.248V6.19a.248.248,0,0,0,.248.248H9.161a.248.248,0,0,0,.248-.248V1.733a.248.248,0,0,0-.248-.248Zm0,0" transform="translate(0 0)" fill="#bb9a61"/>
    <path id="Контур_214" data-name="Контур 214" d="M9.161,227.2H1.733A1.735,1.735,0,0,1,0,225.465v-10.4a1.735,1.735,0,0,1,1.733-1.733H9.161a1.735,1.735,0,0,1,1.733,1.733v10.4A1.735,1.735,0,0,1,9.161,227.2Zm-7.428-12.38a.248.248,0,0,0-.248.248v10.4a.248.248,0,0,0,.248.248H9.161a.248.248,0,0,0,.248-.248v-10.4a.248.248,0,0,0-.248-.248Zm0,0" transform="translate(0 -203.428)" fill="#bb9a61"/>
    <path id="Контур_215" data-name="Контур 215" d="M286.494,349.256h-7.428a1.735,1.735,0,0,1-1.733-1.733v-4.457a1.735,1.735,0,0,1,1.733-1.733h7.428a1.735,1.735,0,0,1,1.733,1.733v4.457A1.735,1.735,0,0,1,286.494,349.256Zm-7.428-6.438a.248.248,0,0,0-.248.248v4.457a.248.248,0,0,0,.248.248h7.428a.248.248,0,0,0,.248-.248v-4.457a.248.248,0,0,0-.248-.248Zm0,0" transform="translate(-264.457 -325.485)" fill="#bb9a61"/>
    <path id="Контур_216" data-name="Контур 216" d="M286.494,13.866h-7.428a1.735,1.735,0,0,1-1.733-1.733V1.733A1.735,1.735,0,0,1,279.065,0h7.428a1.735,1.735,0,0,1,1.733,1.733v10.4A1.735,1.735,0,0,1,286.494,13.866Zm-7.428-12.38a.248.248,0,0,0-.248.248v10.4a.248.248,0,0,0,.248.248h7.428a.248.248,0,0,0,.248-.248V1.733a.248.248,0,0,0-.248-.248Zm0,0" transform="translate(-264.457 0)" fill="#bb9a61"/>
  </g>
</svg>
