<svg id="edit" xmlns="http://www.w3.org/2000/svg" width="28.584" height="29.93" viewBox="0 0 28.584 29.93">
  <g id="Сгруппировать_133" data-name="Сгруппировать 133" transform="translate(3.878 17.353)">
    <path id="Контур_218" data-name="Контур 218" d="M16.572,15.293H3.646a.646.646,0,0,1,0-1.293H16.572a.646.646,0,0,1,0,1.293Z" transform="translate(-3 -14)" fill="#bb9a61"/>
  </g>
  <g id="Сгруппировать_134" data-name="Сгруппировать 134" transform="translate(3.878 21.234)">
    <path id="Контур_219" data-name="Контур 219" d="M13.987,18.293H3.646a.646.646,0,0,1,0-1.293H13.987a.646.646,0,0,1,0,1.293Z" transform="translate(-3 -17)" fill="#bb9a61"/>
  </g>
  <g id="Сгруппировать_135" data-name="Сгруппировать 135" transform="translate(8.412 4.198)">
    <path id="Контур_220" data-name="Контур 220" d="M9.085,8.17A2.585,2.585,0,1,1,11.67,5.585,2.588,2.588,0,0,1,9.085,8.17Zm0-3.878a1.293,1.293,0,1,0,1.293,1.293A1.294,1.294,0,0,0,9.085,4.293Z" transform="translate(-6.5 -3)" fill="#bb9a61"/>
  </g>
  <g id="Сгруппировать_136" data-name="Сгруппировать 136" transform="translate(5.826 9.591)">
    <path id="Контур_221" data-name="Контур 221" d="M14.195,13.17a.647.647,0,0,1-.646-.646V11.232a1.941,1.941,0,0,0-1.939-1.939H7.732a1.941,1.941,0,0,0-1.939,1.939v1.293a.646.646,0,0,1-1.293,0V11.232A3.235,3.235,0,0,1,7.732,8h3.878a3.235,3.235,0,0,1,3.232,3.232v1.293A.647.647,0,0,1,14.195,13.17Z" transform="translate(-4.5 -8)" fill="#bb9a61"/>
  </g>
  <g id="Сгруппировать_137" data-name="Сгруппировать 137" transform="translate(0 0)">
    <path id="Контур_222" data-name="Контур 222" d="M12.28,27.53H3.232A3.258,3.258,0,0,1,0,24.252V3.277A3.258,3.258,0,0,1,3.232,0H18.743a3.258,3.258,0,0,1,3.232,3.277v11.8a.646.646,0,1,1-1.293,0V3.277a1.955,1.955,0,0,0-1.939-1.966H3.232A1.955,1.955,0,0,0,1.293,3.277V24.252a1.955,1.955,0,0,0,1.939,1.966H12.28a.656.656,0,0,1,0,1.311Z" transform="translate(0 0)" fill="#bb9a61"/>
  </g>
  <g id="Сгруппировать_132" data-name="Сгруппировать 132" transform="matrix(0.998, -0.07, 0.07, 0.998, 11.193, 13.676)">
    <path id="Контур_217" data-name="Контур 217" d="M.647,16.294a.646.646,0,0,1-.635-.773l.914-4.571a.635.635,0,0,1,.177-.33L11.157.567a1.94,1.94,0,0,1,2.742,0l1.828,1.828a1.94,1.94,0,0,1,0,2.742L5.673,15.19a.643.643,0,0,1-.331.177l-4.569.914A.59.59,0,0,1,.647,16.294Zm1.51-4.9-.685,3.428L4.9,14.139l9.916-9.916a.647.647,0,0,0,0-.914L12.986,1.482a.647.647,0,0,0-.914,0Zm3.06,3.337H5.23Z" fill="#bb9a61"/>
  </g>
</svg>
