<svg xmlns="http://www.w3.org/2000/svg" width="28" height="26.024" viewBox="0 0 28 26.024">
  <path id="exit" d="M17.545,18.908h2.186v4.066a3.174,3.174,0,0,1-3.28,3.05H3.279A3.174,3.174,0,0,1,0,22.974V3.05A3.174,3.174,0,0,1,3.279,0H16.452a3.175,3.175,0,0,1,3.28,3.05V7.116H17.545V3.05a1.058,1.058,0,0,0-1.093-1.017H3.279A1.058,1.058,0,0,0,2.186,3.05V22.974a1.058,1.058,0,0,0,1.093,1.017H16.452a1.058,1.058,0,0,0,1.093-1.017Zm5.3-10.688L21.3,9.658,23.815,12H9.674v2.033H23.815L21.3,16.367,22.847,17.8,28,13.012Zm0,0" transform="translate(0 0)" fill="#bb9a61"/>
</svg>
