<svg id="Home_icon" data-name="Home icon" xmlns="http://www.w3.org/2000/svg" width="100.459" height="90.152" viewBox="0 0 100.459 90.152">
  <g id="Сгруппировать_7" data-name="Сгруппировать 7">
    <path id="Контур_56" data-name="Контур 56" d="M97.005,54.012h-.959l-8.99-24.205a5.458,5.458,0,0,0-5.1-3.543H18.5a5.458,5.458,0,0,0-5.1,3.543L4.413,54.012H3.454A3.458,3.458,0,0,0,0,57.466v2.775a3.458,3.458,0,0,0,3.454,3.454h.511V95.949a1.472,1.472,0,1,0,2.943,0V63.695H30.013a4.809,4.809,0,0,0,3.423-1.418L50.229,45.483,67.023,62.277a4.809,4.809,0,0,0,3.423,1.418H93.552v3.9a1.472,1.472,0,1,0,2.943,0v-3.9h.511a3.458,3.458,0,0,0,3.454-3.454V57.466A3.458,3.458,0,0,0,97.005,54.012ZM16.162,30.832A2.5,2.5,0,0,1,18.5,29.207H81.96A2.5,2.5,0,0,1,84.3,30.832l8.61,23.181H72.451l-18.8-18.8a4.841,4.841,0,0,0-6.846,0l-18.8,18.8H7.552ZM97.516,60.241a.511.511,0,0,1-.511.511H70.446A1.885,1.885,0,0,1,69.1,60.2L51.27,42.361a1.472,1.472,0,0,0-2.081,0L31.355,60.2a1.886,1.886,0,0,1-1.342.556H3.454a.511.511,0,0,1-.511-.511V57.466a.511.511,0,0,1,.511-.511H28.617a1.472,1.472,0,0,0,1.041-.431l19.23-19.23a1.9,1.9,0,0,1,2.684,0L70.8,56.524a1.471,1.471,0,0,0,1.041.431H97.006a.511.511,0,0,1,.511.511v2.775Z" transform="translate(0 -26.264)" fill="#bb9a61"/>
    <path id="Контур_57" data-name="Контур 57" d="M363.737,305.891a1.471,1.471,0,0,0,1.472-1.472V278.257a1.471,1.471,0,0,0-1.472-1.472h-19.82a1.471,1.471,0,0,0-1.472,1.472v26.163a1.471,1.471,0,0,0,1.472,1.472Zm-1.472-9.286H355.3v-6.967h6.967Zm-9.91,0h-6.967v-6.967h6.967Zm9.91,6.342H345.388v-3.4h16.877Zm0-16.253H355.3v-6.967h6.967Zm-9.91-6.967V286.7h-6.967v-6.967Z" transform="translate(-275.254 -227.631)" fill="#bb9a61"/>
    <path id="Контур_58" data-name="Контур 58" d="M74.83,305.891a1.471,1.471,0,0,0,1.472-1.472V278.257a1.471,1.471,0,0,0-1.472-1.472H55.01a1.471,1.471,0,0,0-1.472,1.472v26.163a1.471,1.471,0,0,0,1.472,1.472Zm-1.472-9.286H66.391v-6.967h6.967Zm-9.91,0H56.481v-6.967h6.967Zm9.91,6.342H56.481v-3.4H73.358Zm0-16.253H66.391v-6.967h6.967Zm-9.91-6.967V286.7H56.481v-6.967Z" transform="translate(-43.033 -227.631)" fill="#bb9a61"/>
    <path id="Контур_59" data-name="Контур 59" d="M235.241,309.11h-9.514a1.471,1.471,0,0,0-1.472,1.472v6.342a1.472,1.472,0,0,0,1.472,1.472h9.514a1.472,1.472,0,0,0,1.472-1.472v-6.342A1.471,1.471,0,0,0,235.241,309.11Zm-1.472,6.342H227.2v-3.4h6.571Z" transform="translate(-180.255 -253.613)" fill="#bb9a61"/>
    <path id="Контур_60" data-name="Контур 60" d="M231.8,182.572a7.814,7.814,0,1,0-7.814,7.814A7.823,7.823,0,0,0,231.8,182.572Zm-12.685,0a4.871,4.871,0,1,1,4.871,4.871A4.877,4.877,0,0,1,219.118,182.572Z" transform="translate(-173.76 -145.622)" fill="#bb9a61"/>
    <path id="Контур_61" data-name="Контур 61" d="M98.987,298.226H96.495V265.972a1.472,1.472,0,0,0-2.943,0v32.255H62.8V268.382a1.471,1.471,0,0,0-1.472-1.472H39.13a1.471,1.471,0,0,0-1.472,1.472v29.844H6.907v-3.9a1.472,1.472,0,1,0-2.943,0v3.9H1.472A1.471,1.471,0,0,0,0,299.7v6.739a1.471,1.471,0,0,0,1.472,1.472H98.987a1.471,1.471,0,0,0,1.472-1.472V299.7A1.471,1.471,0,0,0,98.987,298.226ZM40.6,287.493h2.1a1.472,1.472,0,0,0,0-2.943H40.6v-14.7H59.857v28.373H40.6Zm56.914,17.472H2.943v-3.8H97.516Z" transform="translate(0 -217.756)" fill="#bb9a61"/>
  </g>
</svg>
