<svg id="list" xmlns="http://www.w3.org/2000/svg" width="24.25" height="24.25" viewBox="0 0 24.25 24.25">
  <g id="Сгруппировать_119" data-name="Сгруппировать 119">
    <g id="Сгруппировать_118" data-name="Сгруппировать 118">
      <path id="Контур_206" data-name="Контур 206" d="M21.651,0H2.6A2.6,2.6,0,0,0,0,2.6V21.651a2.6,2.6,0,0,0,2.6,2.6H21.651a2.6,2.6,0,0,0,2.6-2.6V2.6A2.6,2.6,0,0,0,21.651,0Zm.866,21.651a.866.866,0,0,1-.866.866H2.6a.866.866,0,0,1-.866-.866V2.6A.866.866,0,0,1,2.6,1.732H21.651a.866.866,0,0,1,.866.866V21.651Z" fill="#bb9a61"/>
    </g>
  </g>
  <g id="Сгруппировать_121" data-name="Сгруппировать 121" transform="translate(4.332 5.197)">
    <g id="Сгруппировать_120" data-name="Сгруппировать 120">
      <path id="Контур_207" data-name="Контур 207" d="M88.79,102.4H86.2a.864.864,0,1,0,0,1.729H88.79a.864.864,0,1,0,0-1.729Z" transform="translate(-85.333 -102.4)" fill="#bb9a61"/>
    </g>
  </g>
  <g id="Сгруппировать_123" data-name="Сгруппировать 123" transform="translate(10.407 5.197)">
    <g id="Сгруппировать_122" data-name="Сгруппировать 122">
      <path id="Контур_208" data-name="Контур 208" d="M213.442,102.4h-7.778a.864.864,0,1,0,0,1.729h7.778a.864.864,0,1,0,0-1.729Z" transform="translate(-204.8 -102.4)" fill="#bb9a61"/>
    </g>
  </g>
  <g id="Сгруппировать_125" data-name="Сгруппировать 125" transform="translate(4.332 11.261)">
    <g id="Сгруппировать_124" data-name="Сгруппировать 124">
      <path id="Контур_209" data-name="Контур 209" d="M88.79,221.867H86.2a.864.864,0,1,0,0,1.729H88.79a.864.864,0,1,0,0-1.729Z" transform="translate(-85.333 -221.867)" fill="#bb9a61"/>
    </g>
  </g>
  <g id="Сгруппировать_127" data-name="Сгруппировать 127" transform="translate(10.407 11.261)">
    <g id="Сгруппировать_126" data-name="Сгруппировать 126">
      <path id="Контур_210" data-name="Контур 210" d="M213.442,221.867h-7.778a.864.864,0,1,0,0,1.729h7.778a.864.864,0,1,0,0-1.729Z" transform="translate(-204.8 -221.867)" fill="#bb9a61"/>
    </g>
  </g>
  <g id="Сгруппировать_129" data-name="Сгруппировать 129" transform="translate(4.332 17.324)">
    <g id="Сгруппировать_128" data-name="Сгруппировать 128">
      <path id="Контур_211" data-name="Контур 211" d="M88.79,341.333H86.2a.864.864,0,1,0,0,1.728H88.79a.864.864,0,1,0,0-1.728Z" transform="translate(-85.333 -341.333)" fill="#bb9a61"/>
    </g>
  </g>
  <g id="Сгруппировать_131" data-name="Сгруппировать 131" transform="translate(10.407 17.324)">
    <g id="Сгруппировать_130" data-name="Сгруппировать 130">
      <path id="Контур_212" data-name="Контур 212" d="M213.442,341.333h-7.778a.864.864,0,1,0,0,1.728h7.778a.864.864,0,1,0,0-1.728Z" transform="translate(-204.8 -341.333)" fill="#bb9a61"/>
    </g>
  </g>
</svg>
