<svg id="Phone" xmlns="http://www.w3.org/2000/svg" width="60" height="60" viewBox="0 0 60 60">
  <circle id="Эллипс_8" data-name="Эллипс 8" cx="30" cy="30" r="30" fill="#bb9a61"/>
  <g id="phone_black_24dp" transform="translate(13 13)">
    <path id="Контур_26" data-name="Контур 26" d="M0,0H35V35H0Z" fill="none"/>
    <path id="Контур_27" data-name="Контур 27" d="M8.384,14.586a22.53,22.53,0,0,0,9.8,9.8l3.272-3.272a1.479,1.479,0,0,1,1.517-.357,16.965,16.965,0,0,0,5.31.848,1.492,1.492,0,0,1,1.487,1.487v5.191a1.492,1.492,0,0,1-1.487,1.487A25.282,25.282,0,0,1,3,4.487,1.492,1.492,0,0,1,4.487,3H9.693A1.492,1.492,0,0,1,11.18,4.487a16.9,16.9,0,0,0,.848,5.31,1.493,1.493,0,0,1-.372,1.517Z" transform="translate(1.114 1.114)" fill="#fff"/>
  </g>
</svg>
