<svg id="Quality_icon" data-name="Quality icon" xmlns="http://www.w3.org/2000/svg" width="90" height="90" viewBox="0 0 90 90">
  <g id="Сгруппировать_5" data-name="Сгруппировать 5">
    <path id="Контур_41" data-name="Контур 41" d="M98.885,61.346a1.735,1.735,0,1,0-.814,3.373,31.248,31.248,0,1,1-14.7,0,1.735,1.735,0,1,0-.814-3.373,34.89,34.89,0,0,0-18.99,12.107A34.3,34.3,0,0,0,56,95.071a34.72,34.72,0,0,0,69.44,0,34.3,34.3,0,0,0-7.565-21.619A34.891,34.891,0,0,0,98.885,61.346Z" transform="translate(-45.721 -50.045)" fill="#bb9a61"/>
    <path id="Контур_42" data-name="Контур 42" d="M88.94,40.772l-2.056-3.837.343-4.743a8.972,8.972,0,0,0-3.248-7.942l-3.414-2.8-1.343-4.045a9.035,9.035,0,0,0-6.149-6.5L68.86,9.637l-3.227-3.73A9,9,0,0,0,57.9,2.781l-4.373.436-4.3-2.157a8.968,8.968,0,0,0-8.458,0L36.935,3.116l-4.743-.343a8.971,8.971,0,0,0-7.942,3.248l-2.8,3.414-4.045,1.343a9.035,9.035,0,0,0-6.5,6.148L9.637,21.14l-3.73,3.227A8.995,8.995,0,0,0,2.78,32.1l.436,4.373-2.157,4.3a8.968,8.968,0,0,0,0,8.458l2.056,3.837-.343,4.743a8.973,8.973,0,0,0,3.248,7.942l3.414,2.8,1.343,4.045a9.034,9.034,0,0,0,6.149,6.5l4.213,1.273,3.227,3.73A8.994,8.994,0,0,0,32.1,87.219l4.373-.436,4.3,2.156a8.968,8.968,0,0,0,8.458,0l3.837-2.056,4.743.343a8.975,8.975,0,0,0,7.943-3.248l2.8-3.414,4.045-1.343a9.035,9.035,0,0,0,6.5-6.149l1.273-4.213,3.73-3.227A8.995,8.995,0,0,0,87.219,57.9l-.436-4.373,2.156-4.3a8.969,8.969,0,0,0,0-8.458ZM85.83,47.59l-.022.043-2.4,4.775a1.759,1.759,0,0,0-.178.963l.486,4.878A5.484,5.484,0,0,1,81.8,62.965l-4.127,3.57a1.756,1.756,0,0,0-.532.821l-1.42,4.7a5.51,5.51,0,0,1-4.014,3.761c-.052.012-.1.027-.155.044l-4.6,1.527a1.758,1.758,0,0,0-.806.555L63.03,81.752a5.472,5.472,0,0,1-4.866,1.978l-.07-.007-5.284-.382a1.757,1.757,0,0,0-.957.2l-4.283,2.3a5.458,5.458,0,0,1-5.16-.01l-.043-.022-4.775-2.4a1.758,1.758,0,0,0-.788-.187q-.087,0-.174.009l-4.878.486A5.483,5.483,0,0,1,27.035,81.8l-3.57-4.127a1.756,1.756,0,0,0-.821-.533l-4.7-1.42a5.509,5.509,0,0,1-3.761-4.014q-.018-.078-.044-.155l-1.527-4.6a1.756,1.756,0,0,0-.555-.806L8.248,63.03A5.471,5.471,0,0,1,6.27,58.164c0-.023,0-.046.007-.07l.382-5.284a1.758,1.758,0,0,0-.2-.957l-2.3-4.282a5.459,5.459,0,0,1,.01-5.16l.022-.043,2.4-4.775a1.757,1.757,0,0,0,.178-.962l-.486-4.878a5.484,5.484,0,0,1,1.916-4.716l4.127-3.57a1.758,1.758,0,0,0,.533-.821l1.42-4.7a5.51,5.51,0,0,1,4.014-3.761q.078-.018.155-.044l4.6-1.527a1.756,1.756,0,0,0,.806-.555l3.119-3.808A5.473,5.473,0,0,1,31.835,6.27l.07.007,5.284.382a1.764,1.764,0,0,0,.957-.2l4.283-2.3a5.458,5.458,0,0,1,5.16.01l.043.022,4.775,2.4a1.755,1.755,0,0,0,.962.178l4.878-.486A5.484,5.484,0,0,1,62.964,8.2l3.57,4.127a1.757,1.757,0,0,0,.821.533l4.7,1.42a5.51,5.51,0,0,1,3.761,4.014q.018.078.044.155l1.527,4.6a1.757,1.757,0,0,0,.555.806l3.808,3.119a5.471,5.471,0,0,1,1.977,4.866c0,.023,0,.046-.006.07l-.382,5.284a1.759,1.759,0,0,0,.2.957l2.3,4.283a5.458,5.458,0,0,1-.01,5.161Z" transform="translate(0.001 0)" fill="#bb9a61"/>
    <path id="Контур_43" data-name="Контур 43" d="M153.928,118.794a1.834,1.834,0,0,0-1.657-1.051h-9.7a1.836,1.836,0,0,0-1.836,1.836v27.786a1.836,1.836,0,0,0,1.836,1.836h9.7a1.836,1.836,0,0,0,1.692-1.122,34.788,34.788,0,0,1,4.342,1.01,26.393,26.393,0,0,0,7.013,1.271h10.6a7.363,7.363,0,0,0,7.1-4.646,6.588,6.588,0,0,0,.337-4.12,6.624,6.624,0,0,0,1.514-2.027,6.993,6.993,0,0,0,.5-4.957,6.872,6.872,0,0,0,1.81-6.458,5.529,5.529,0,0,0,1.056-8.795,5.74,5.74,0,0,0-3.982-1.567H169.313a4.985,4.985,0,0,1-.842-4.91,9.529,9.529,0,0,0-.266-8.759c-1.121-2.127-4.135-4.245-6.668-3.884a3.474,3.474,0,0,0-2.964,2.9,10.728,10.728,0,0,0-.152,1.562,12.973,12.973,0,0,1-1.427,5.823,15.47,15.47,0,0,0-1.379,4.764C155.259,117.389,155.086,118.4,153.928,118.794Zm-9.521,2.621h6.028v24.114h-6.028Zm14.829-5.523a12.421,12.421,0,0,1,1.013-3.678,16.639,16.639,0,0,0,1.839-7.332,9.223,9.223,0,0,1,.083-1.019v0a4.3,4.3,0,0,1,2.785,1.971,5.861,5.861,0,0,1,.124,5.639,8.471,8.471,0,0,0,.053,6.339,1.835,1.835,0,0,0,.255,3.652H184.25a2.085,2.085,0,0,1,1.451.555,1.87,1.87,0,0,1,.575,1.4,1.976,1.976,0,0,1-1.971,1.859l-4.725.1a1.836,1.836,0,0,0,.039,3.671h.041l3.935-.086a2.985,2.985,0,0,1-.075,1.852,2.458,2.458,0,0,1-2.4,1.81,1.836,1.836,0,0,0,0,3.671,6.494,6.494,0,0,0,.819-.051,3.593,3.593,0,0,1-.369,1.711,2.456,2.456,0,0,1-2.263,1.51,1.836,1.836,0,1,0,0,3.671q.285,0,.564-.025a3.464,3.464,0,0,1-.277,1.274,3.747,3.747,0,0,1-3.678,2.3h-10.6a23.338,23.338,0,0,1-6.034-1.138,35.267,35.267,0,0,0-5.177-1.155V122.509C158.24,121.76,158.809,118.415,159.236,115.892Z" transform="translate(-117.202 -83.476)" fill="#bb9a61"/>
    <path id="Контур_44" data-name="Контур 44" d="M247.835,59.672a1.836,1.836,0,1,0,0-3.671h0a1.836,1.836,0,0,0,0,3.671Z" transform="translate(-202.835 -45.721)" fill="#bb9a61"/>
  </g>
</svg>
