<svg id="shopping-cart" xmlns="http://www.w3.org/2000/svg" width="21" height="19" viewBox="0 0 21 19">
  <g id="Сгруппировать_65" data-name="Сгруппировать 65">
    <g id="Сгруппировать_64" data-name="Сгруппировать 64">
      <path id="Контур_152" data-name="Контур 152" d="M20.913,24.108a.456.456,0,0,0-.35-.173H3.938L3.5,21.681c0-.173-.263-.347-.438-.347H.437a.433.433,0,1,0,0,.867H2.713l2.1,10.575A3.076,3.076,0,0,0,7.788,35.2H17.85a.433.433,0,1,0,0-.867H7.875a2.022,2.022,0,0,1-1.75-.953L18.9,31.649a.375.375,0,0,0,.35-.347L21,24.368A.425.425,0,0,0,20.913,24.108Zm-2.45,6.761L5.687,32.516l-1.575-7.8H19.95Z" transform="translate(0 -21.334)" fill="#222"/>
    </g>
  </g>
  <g id="Сгруппировать_67" data-name="Сгруппировать 67" transform="translate(5.281 14.724)">
    <g id="Сгруппировать_66" data-name="Сгруппировать 66">
      <path id="Контур_153" data-name="Контур 153" d="M130.138,384a2.138,2.138,0,1,0,2.138,2.138A2.117,2.117,0,0,0,130.138,384Zm0,3.421a1.283,1.283,0,1,1,1.283-1.283A1.315,1.315,0,0,1,130.138,387.421Z" transform="translate(-128 -384)" fill="#222"/>
    </g>
  </g>
  <g id="Сгруппировать_69" data-name="Сгруппировать 69" transform="translate(14.158 14.724)">
    <g id="Сгруппировать_68" data-name="Сгруппировать 68">
      <path id="Контур_154" data-name="Контур 154" d="M343.472,384a2.138,2.138,0,1,0,2.138,2.138A2.117,2.117,0,0,0,343.472,384Zm0,3.421a1.283,1.283,0,1,1,1.283-1.283A1.315,1.315,0,0,1,343.472,387.421Z" transform="translate(-341.334 -384)" fill="#222"/>
    </g>
  </g>
</svg>
