<svg id="Support_icon" data-name="Support icon" xmlns="http://www.w3.org/2000/svg" width="80.859" height="90" viewBox="0 0 80.859 90">
  <g id="Сгруппировать_9" data-name="Сгруппировать 9" transform="translate(58.008 69.609)">
    <g id="Сгруппировать_8" data-name="Сгруппировать 8">
      <path id="Контур_62" data-name="Контур 62" d="M357.758,396a1.758,1.758,0,1,0,1.758,1.758A1.758,1.758,0,0,0,357.758,396Z" transform="translate(-356 -396)" fill="#bb9a61"/>
    </g>
  </g>
  <g id="Сгруппировать_11" data-name="Сгруппировать 11">
    <g id="Сгруппировать_10" data-name="Сгруппировать 10">
      <path id="Контур_63" data-name="Контур 63" d="M90.094,63.925l-8.355-2.784-3-6A19.252,19.252,0,0,0,83.95,44.957l.374-2.242h3.2A5.279,5.279,0,0,0,92.8,37.441V26.367a26.367,26.367,0,0,0-52.734,0V37.441a5.282,5.282,0,0,0,3.516,4.971v2.06a5.279,5.279,0,0,0,5.273,5.273H50.4a19.07,19.07,0,0,0,2.949,4.566c.249.286.509.564.774.833l-3,6-8.355,2.785C33.051,67.165,26,77.391,26,88.242A1.758,1.758,0,0,0,27.758,90H105.1a1.758,1.758,0,0,0,1.758-1.758C106.859,77.391,99.809,67.165,90.094,63.925Zm-.812-26.484A1.76,1.76,0,0,1,87.523,39.2H84.841c.447-3.461.745-7.144.864-10.772,0-.1.006-.2.009-.3h3.567ZM45.336,39.2a1.76,1.76,0,0,1-1.758-1.758V28.125h3.568q.009.275.019.553c0,.006,0,.012,0,.019v0c.123,3.528.417,7.116.854,10.5H45.336Zm3.516,7.031a1.76,1.76,0,0,1-1.758-1.758V42.715h1.441l.374,2.243c.071.426.159.851.261,1.273ZM47.1,24.609H43.645a22.852,22.852,0,0,1,45.569,0H85.763A17.8,17.8,0,0,0,68,7.031H64.857A17.8,17.8,0,0,0,47.1,24.609Zm17.76-14.062H68A14.293,14.293,0,0,1,82.25,24.857c0,.553,0,1.035-.014,1.473,0,.006,0,.011,0,.017l-2.2-.314a28.246,28.246,0,0,1-15.88-7.94,1.758,1.758,0,0,0-1.243-.515,15.9,15.9,0,0,0-12.227,5.785A14.289,14.289,0,0,1,64.856,10.547ZM52.814,46.23C51.934,43.3,50.927,34.69,50.7,29.17l2.366-3.155a12.373,12.373,0,0,1,9.149-4.9,31.8,31.8,0,0,0,17.321,8.4l2.588.37c-.173,3.671-.526,7.355-1.033,10.743v0c-.161,1.089-.288,1.79-.612,3.748-.931,5.584-5.1,10.633-10.6,12.008a13.83,13.83,0,0,1-15.526-6.641h3.583a5.282,5.282,0,0,0,4.971,3.516H66.43a5.273,5.273,0,0,0,0-10.547H62.914A5.276,5.276,0,0,0,57.94,46.23Zm9.953,13.714a17.631,17.631,0,0,0,6.538.147L66.2,63.376Zm1.015,5.988-5.575,5.9A66.975,66.975,0,0,1,54.271,62.7l2.094-4.187ZM76.2,57.919,78.588,62.7a66.955,66.955,0,0,1-3.936,9.129l-5.967-5.967ZM61.156,47.988a1.758,1.758,0,0,1,1.758-1.758H66.43a1.758,1.758,0,0,1,0,3.516H62.914A1.76,1.76,0,0,1,61.156,47.988Zm-31.57,38.5c.7-8.708,6.492-16.623,14.291-19.224l7.4-2.466a70.465,70.465,0,0,0,5,10.853l.01.018h0A70.483,70.483,0,0,0,61.1,83.013l2.162,3.471ZM66.43,84.917,64.046,81.09q-.04-.064-.085-.125A67.024,67.024,0,0,1,60,75.048l6.269-6.629,6.606,6.606A66.95,66.95,0,0,1,68.9,80.965C68.813,81.08,68.935,80.9,66.43,84.917ZM69.6,86.484l2.162-3.471A70.457,70.457,0,0,0,76.6,75.607l.026-.047,0-.006a70.408,70.408,0,0,0,4.951-10.76l7.4,2.466c7.8,2.6,13.595,10.516,14.292,19.224H69.6Z" transform="translate(-26)" fill="#bb9a61"/>
    </g>
  </g>
  <g id="Сгруппировать_13" data-name="Сгруппировать 13" transform="translate(64.185 72.965)">
    <g id="Сгруппировать_12" data-name="Сгруппировать 12">
      <path id="Контур_64" data-name="Контур 64" d="M398.945,421.494a17.574,17.574,0,0,0-4.976-6.041,1.758,1.758,0,1,0-2.144,2.786,14.039,14.039,0,0,1,3.975,4.826,1.758,1.758,0,0,0,3.145-1.571Z" transform="translate(-391.139 -415.088)" fill="#bb9a61"/>
    </g>
  </g>
</svg>
