<svg xmlns="http://www.w3.org/2000/svg" width="28.618" height="20.122" viewBox="0 0 28.618 20.122">
  <path id="youtube-brands" d="M42.953,67.148a3.6,3.6,0,0,0-2.53-2.547C38.191,64,29.242,64,29.242,64s-8.949,0-11.181.6a3.6,3.6,0,0,0-2.53,2.547,40.487,40.487,0,0,0,0,13.866,3.542,3.542,0,0,0,2.53,2.506c2.232.6,11.181.6,11.181.6s8.949,0,11.181-.6a3.542,3.542,0,0,0,2.53-2.506,40.487,40.487,0,0,0,0-13.866ZM26.315,78.336v-8.51l7.48,4.255-7.48,4.255Z" transform="translate(-14.933 -64)" fill="#fff"/>
</svg>
